<svg xmlns="http://www.w3.org/2000/svg" width="3072" height="3100" viewBox="0 0 3072 3100" role="img" aria-labelledby="title desc">
<title id="title">AgentFlow 端到端业务流程与执行边界</title>
<desc id="desc">AgentFlow 源码快照 fec4a87，已实现、可选配置和待完成边界分别标注。</desc>
<defs>
<marker id="arrow-168dc5" markerWidth="10" markerHeight="8" refX="9" refY="4" orient="auto" markerUnits="strokeWidth"><path d="M0,0 L10,4 L0,8 Z" fill="#168dc5"/></marker>
<marker id="arrow-0d9766" markerWidth="10" markerHeight="8" refX="9" refY="4" orient="auto" markerUnits="strokeWidth"><path d="M0,0 L10,4 L0,8 Z" fill="#0d9766"/></marker>
<marker id="arrow-e88720" markerWidth="10" markerHeight="8" refX="9" refY="4" orient="auto" markerUnits="strokeWidth"><path d="M0,0 L10,4 L0,8 Z" fill="#e88720"/></marker>
<marker id="arrow-8065b7" markerWidth="10" markerHeight="8" refX="9" refY="4" orient="auto" markerUnits="strokeWidth"><path d="M0,0 L10,4 L0,8 Z" fill="#8065b7"/></marker>
</defs>
<g font-family="'PingFang SC','Heiti SC','Microsoft YaHei','Noto Sans CJK SC',sans-serif">
<rect x="0" y="0" width="3072" height="3100" rx="0" fill="#ffffff" stroke="#ffffff" stroke-width="1.6"/>
<text x="1536" y="76" font-size="58" fill="#193e73" font-weight="700" text-anchor="middle">AgentFlow 端到端业务流程与执行边界</text>
<text x="1536" y="127" font-size="28" fill="#193e73" font-weight="400" text-anchor="middle">以专用报销链路为例 · 实际签收、会签与复核要求由已发布流程及法人配置决定</text>
<text x="3048" y="28" font-size="19" fill="#627c9e" font-weight="400" text-anchor="end">源码快照 2026-10-03 · fec4a87</text>
<rect x="24" y="156" width="3024" height="72" rx="6" fill="#edf6ff" stroke="#b9d9ef" stroke-width="1.6"/>
<text x="50" y="201" font-size="29" fill="#193e73" font-weight="700" text-anchor="start">全程守卫：可信主体 / 租户与字段权限 / 预期版本 / 固定轮次 / 幂等原请求 / 审计与证据有效期</text>
<rect x="24" y="250" width="3024" height="277" rx="6" fill="#ffffff" stroke="#2977a7" stroke-width="1.6"/>
<rect x="24" y="250" width="3024" height="51" rx="6" fill="#2977a7" stroke="#2977a7" stroke-width="1.6"/>
<text x="45" y="285" font-size="29" fill="#ffffff" font-weight="700" text-anchor="start">01  设计与发布</text>
<text x="3025" y="284" font-size="22" fill="#ffffff" font-weight="400" text-anchor="end">发布版本、表单、审批规则与引擎部署共同提交</text>
<rect x="65" y="327" width="515" height="166" rx="6" fill="#f0f9ff" stroke="#168dc5" stroke-width="1.6"/>
<text x="83" y="365" font-size="27" fill="#168dc5" font-weight="700" text-anchor="start">模板复制 / 创建草稿</text>
<text x="83" y="409" font-size="23" fill="#193e73" font-weight="400" text-anchor="start">5 个内置模板或独立设计</text>
<text x="83" y="442" font-size="23" fill="#193e73" font-weight="400" text-anchor="start">复制保留模板来源</text>
<polyline points="584,411 668,411" fill="none" stroke="#168dc5" stroke-width="3" marker-end="url(#arrow-168dc5)" stroke-linejoin="round"/>
<rect x="671" y="327" width="515" height="166" rx="6" fill="#f0f9ff" stroke="#168dc5" stroke-width="1.6"/>
<text x="689" y="365" font-size="27" fill="#168dc5" font-weight="700" text-anchor="start">配置表单与流程图</text>
<text x="689" y="409" font-size="23" fill="#193e73" font-weight="400" text-anchor="start">节点 / 条件 / 选人 / 字段权限</text>
<text x="689" y="442" font-size="23" fill="#193e73" font-weight="400" text-anchor="start">自动保存与 revision 冲突保护</text>
<polyline points="1190,411 1274,411" fill="none" stroke="#168dc5" stroke-width="3" marker-end="url(#arrow-168dc5)" stroke-linejoin="round"/>
<rect x="1277" y="327" width="515" height="166" rx="6" fill="#f0f9ff" stroke="#168dc5" stroke-width="1.6"/>
<text x="1295" y="365" font-size="27" fill="#168dc5" font-weight="700" text-anchor="start">校验与发布就绪检查</text>
<text x="1295" y="409" font-size="23" fill="#193e73" font-weight="400" text-anchor="start">白名单 AST / 图结构 / 身份引用</text>
<text x="1295" y="442" font-size="23" fill="#193e73" font-weight="400" text-anchor="start">固定日历、事件及子流程依据</text>
<polyline points="1796,411 1880,411" fill="none" stroke="#168dc5" stroke-width="3" marker-end="url(#arrow-168dc5)" stroke-linejoin="round"/>
<rect x="1883" y="327" width="515" height="166" rx="6" fill="#f0f9ff" stroke="#168dc5" stroke-width="1.6"/>
<text x="1901" y="365" font-size="27" fill="#168dc5" font-weight="700" text-anchor="start">模拟与版本核对</text>
<text x="1901" y="409" font-size="23" fill="#193e73" font-weight="400" text-anchor="start">分支覆盖、样例路径、版本差异</text>
<text x="1901" y="442" font-size="23" fill="#193e73" font-weight="400" text-anchor="start">模拟不启动真实流程实例</text>
<polyline points="2402,411 2486,411" fill="none" stroke="#168dc5" stroke-width="3" marker-end="url(#arrow-168dc5)" stroke-linejoin="round"/>
<rect x="2489" y="327" width="515" height="166" rx="6" fill="#f0f9ff" stroke="#168dc5" stroke-width="1.6"/>
<text x="2507" y="365" font-size="27" fill="#168dc5" font-weight="700" text-anchor="start">发布不可变版本</text>
<text x="2507" y="409" font-size="23" fill="#193e73" font-weight="400" text-anchor="start">业务版本 + 发布者与变更说明</text>
<text x="2507" y="442" font-size="23" fill="#193e73" font-weight="400" text-anchor="start">生成 BPMN 并绑定引擎标识</text>
<rect x="24" y="550" width="3024" height="412" rx="6" fill="#ffffff" stroke="#1588ad" stroke-width="1.6"/>
<rect x="24" y="550" width="3024" height="51" rx="6" fill="#1588ad" stroke="#1588ad" stroke-width="1.6"/>
<text x="45" y="585" font-size="29" fill="#ffffff" font-weight="700" text-anchor="start">02  申请填报、预检与可信提交</text>
<text x="3025" y="584" font-size="22" fill="#ffffff" font-weight="400" text-anchor="end">远端预检在事务外；正式提交只使用仍有效的已确认事实</text>
<rect x="65" y="624" width="375" height="189" rx="6" fill="#f0f9ff" stroke="#168dc5" stroke-width="1.6"/>
<text x="83" y="662" font-size="27" fill="#168dc5" font-weight="700" text-anchor="start">专用草稿与原件</text>
<text x="83" y="706" font-size="23" fill="#193e73" font-weight="400" text-anchor="start">发票、费用行、精确分摊</text>
<text x="83" y="739" font-size="23" fill="#193e73" font-weight="400" text-anchor="start">任职、法人、账户与类别</text>
<text x="83" y="772" font-size="23" fill="#193e73" font-weight="400" text-anchor="start">草稿可反复保存与补正</text>
<rect x="500" y="624" width="390" height="189" rx="6" fill="#f0f9ff" stroke="#168dc5" stroke-width="1.6"/>
<text x="518" y="662" font-size="27" fill="#168dc5" font-weight="700" text-anchor="start">持久财务预检</text>
<text x="518" y="706" font-size="23" fill="#193e73" font-weight="400" text-anchor="start">目录 / 汇率 / 制度 / 验票</text>
<text x="518" y="739" font-size="23" fill="#193e73" font-weight="400" text-anchor="start">预算预检、资源与账户校验</text>
<text x="518" y="772" font-size="23" fill="#193e73" font-weight="400" text-anchor="start">记录输入双版本与有效期</text>
<polygon points="1092.5,623 1235,717.5 1092.5,812 950,717.5" fill="#fff9ee" stroke="#168dc5" stroke-width="2"/>
<text x="1092.5" y="710.5" font-size="24" fill="#168dc5" font-weight="700" text-anchor="middle">最新预检</text>
<text x="1092.5" y="742.5" font-size="24" fill="#168dc5" font-weight="700" text-anchor="middle">READY 且有效?</text>
<rect x="1295" y="624" width="555" height="189" rx="6" fill="#f0f9ff" stroke="#168dc5" stroke-width="1.6"/>
<text x="1313" y="662" font-size="27" fill="#168dc5" font-weight="700" text-anchor="start">本地提交短事务</text>
<text x="1313" y="706" font-size="23" fill="#193e73" font-weight="400" text-anchor="start">锁内重读双版本及证据</text>
<text x="1313" y="739" font-size="23" fill="#193e73" font-weight="400" text-anchor="start">冻结轮次金额与资源预留</text>
<text x="1313" y="772" font-size="23" fill="#193e73" font-weight="400" text-anchor="start">启动审批 + 保存预算原命令</text>
<rect x="1910" y="624" width="425" height="189" rx="6" fill="#f0f9ff" stroke="#168dc5" stroke-width="1.6"/>
<text x="1928" y="662" font-size="27" fill="#168dc5" font-weight="700" text-anchor="start">提交回执与真实待办</text>
<text x="1928" y="706" font-size="23" fill="#193e73" font-weight="400" text-anchor="start">响应与全部本地变更原子保存</text>
<text x="1928" y="739" font-size="23" fill="#193e73" font-weight="400" text-anchor="start">预算操作只表示已登记</text>
<text x="1928" y="772" font-size="23" fill="#193e73" font-weight="400" text-anchor="start">业务审批按发布流程推进</text>
<rect x="2395" y="624" width="605" height="189" rx="6" fill="#f0f9ff" stroke="#168dc5" stroke-width="1.6"/>
<text x="2413" y="662" font-size="27" fill="#168dc5" font-weight="700" text-anchor="start">后台预算冻结与原操作查询</text>
<text x="2413" y="706" font-size="23" fill="#193e73" font-weight="400" text-anchor="start">领取 → 事务外预算 HTTP → 结果落库</text>
<text x="2413" y="739" font-size="23" fill="#193e73" font-weight="400" text-anchor="start">不足：退回当前轮次；未知：查原操作</text>
<text x="2413" y="772" font-size="23" fill="#193e73" font-weight="400" text-anchor="start">财务关键阶段以真实预算确认作守卫</text>
<polyline points="443,718 497,718" fill="none" stroke="#168dc5" stroke-width="3" marker-end="url(#arrow-168dc5)" stroke-linejoin="round"/>
<polyline points="893,718 947,718" fill="none" stroke="#168dc5" stroke-width="3" marker-end="url(#arrow-168dc5)" stroke-linejoin="round"/>
<polyline points="1238,718 1292,718" fill="none" stroke="#168dc5" stroke-width="3" marker-end="url(#arrow-168dc5)" stroke-linejoin="round"/>
<polyline points="1853,718 1907,718" fill="none" stroke="#168dc5" stroke-width="3" marker-end="url(#arrow-168dc5)" stroke-linejoin="round"/>
<polyline points="2338,718 2392,718" fill="none" stroke="#168dc5" stroke-width="3" marker-end="url(#arrow-168dc5)" stroke-linejoin="round"/>
<text x="1260" y="697" font-size="20" fill="#0d9766" font-weight="700" text-anchor="middle">通过</text>
<rect x="500" y="850" width="735" height="83" rx="6" fill="#fff8ed" stroke="#e88720" stroke-width="1.6"/>
<text x="518" y="881" font-size="24" fill="#e88720" font-weight="700" text-anchor="start">补正 / 重新预检</text>
<text x="518" y="915" font-size="20" fill="#193e73" font-weight="400" text-anchor="start">证据失效、配置或输入版本变化时，重新取证</text>
<polyline points="1092,817 1092,845" fill="none" stroke="#e88720" stroke-width="3" marker-end="url(#arrow-e88720)" stroke-linejoin="round"/>
<rect x="1120" y="817" width="72" height="28" rx="0" fill="#ffffff" stroke="#ffffff" stroke-width="1.6"/>
<text x="1150" y="839" font-size="20" fill="#e88720" font-weight="400" text-anchor="middle">不通过</text>
<polyline points="497,892 252,892 252,819" fill="none" stroke="#e88720" stroke-width="3" marker-end="url(#arrow-e88720)" stroke-linejoin="round"/>
<text x="1485" y="888" font-size="28" fill="#e88720" font-weight="700" text-anchor="start">排队成功 ≠ 外部预算已冻结</text>
<rect x="24" y="984" width="3024" height="470" rx="6" fill="#ffffff" stroke="#8065b7" stroke-width="1.6"/>
<rect x="24" y="984" width="3024" height="51" rx="6" fill="#8065b7" stroke="#8065b7" stroke-width="1.6"/>
<text x="45" y="1019" font-size="29" fill="#ffffff" font-weight="700" text-anchor="start">03  人工审批与业务财务节点</text>
<text x="3025" y="1018" font-size="22" fill="#ffffff" font-weight="400" text-anchor="end">任务期限按固定日历；转交与委派不重置已开始的期限</text>
<rect x="65" y="1105" width="355" height="202" rx="6" fill="#f6f2ff" stroke="#8065b7" stroke-width="1.6"/>
<text x="83" y="1143" font-size="27" fill="#8065b7" font-weight="700" text-anchor="start">固定任职与动态选人</text>
<text x="83" y="1187" font-size="23" fill="#193e73" font-weight="400" text-anchor="start">从轮次任职解析主管或字段</text>
<text x="83" y="1220" font-size="23" fill="#193e73" font-weight="400" text-anchor="start">节点激活固定会签名单</text>
<text x="83" y="1253" font-size="23" fill="#193e73" font-weight="400" text-anchor="start">建立真实可办理的待办</text>
<rect x="465" y="1105" width="360" height="202" rx="6" fill="#f6f2ff" stroke="#8065b7" stroke-width="1.6"/>
<text x="483" y="1143" font-size="27" fill="#8065b7" font-weight="700" text-anchor="start">业务人工审批</text>
<text x="483" y="1187" font-size="23" fill="#193e73" font-weight="400" text-anchor="start">全员 / 任一 / 比例会签</text>
<text x="483" y="1220" font-size="23" fill="#193e73" font-weight="400" text-anchor="start">领取、转交、委派与代理</text>
<text x="483" y="1253" font-size="23" fill="#193e73" font-weight="400" text-anchor="start">真实批准意见分别留痕</text>
<rect x="870" y="1105" width="360" height="202" rx="6" fill="#f6f2ff" stroke="#8065b7" stroke-width="1.6"/>
<text x="888" y="1143" font-size="27" fill="#8065b7" font-weight="700" text-anchor="start">纸件签收与业务核对</text>
<text x="888" y="1187" font-size="23" fill="#193e73" font-weight="400" text-anchor="start">按法人配置决定是否需要</text>
<text x="888" y="1220" font-size="23" fill="#193e73" font-weight="400" text-anchor="start">核对原申请与财务版本</text>
<text x="888" y="1253" font-size="23" fill="#193e73" font-weight="400" text-anchor="start">确认签收不会直接付款</text>
<rect x="1275" y="1105" width="470" height="202" rx="6" fill="#f6f2ff" stroke="#8065b7" stroke-width="1.6"/>
<text x="1293" y="1143" font-size="27" fill="#8065b7" font-weight="700" text-anchor="start">财务审核 / 核减 / 复核</text>
<text x="1293" y="1187" font-size="23" fill="#193e73" font-weight="400" text-anchor="start">职责分离与敏感字段权限</text>
<text x="1293" y="1220" font-size="23" fill="#193e73" font-weight="400" text-anchor="start">真实预算、票据与金额守卫</text>
<text x="1293" y="1253" font-size="23" fill="#193e73" font-weight="400" text-anchor="start">核减按专用用例留存原依据</text>
<polygon points="1945.0,1110 2090,1206.0 1945.0,1302 1800,1206.0" fill="#fff9ee" stroke="#168dc5" stroke-width="2"/>
<text x="1945.0" y="1199.0" font-size="24" fill="#168dc5" font-weight="700" text-anchor="middle">人工审批</text>
<text x="1945.0" y="1231.0" font-size="24" fill="#168dc5" font-weight="700" text-anchor="middle">结论分支</text>
<rect x="2150" y="1105" width="850" height="202" rx="6" fill="#effaf4" stroke="#0d9766" stroke-width="1.6"/>
<text x="2168" y="1143" font-size="27" fill="#0d9766" font-weight="700" text-anchor="start">批准后登记凭证准备</text>
<text x="2168" y="1187" font-size="23" fill="#193e73" font-weight="400" text-anchor="start">最终批准与准备意图同事务成功或回滚</text>
<text x="2168" y="1220" font-size="23" fill="#193e73" font-weight="400" text-anchor="start">保存批准版本、财务轮次、金额来源和原目标</text>
<text x="2168" y="1253" font-size="23" fill="#193e73" font-weight="400" text-anchor="start">此刻只有准备任务，不表示 ERP 已过账</text>
<polyline points="423,1206 462,1206" fill="none" stroke="#8065b7" stroke-width="3" marker-end="url(#arrow-8065b7)" stroke-linejoin="round"/>
<polyline points="828,1206 867,1206" fill="none" stroke="#8065b7" stroke-width="3" marker-end="url(#arrow-8065b7)" stroke-linejoin="round"/>
<polyline points="1233,1206 1272,1206" fill="none" stroke="#8065b7" stroke-width="3" marker-end="url(#arrow-8065b7)" stroke-linejoin="round"/>
<polyline points="1748,1206 1797,1206" fill="none" stroke="#8065b7" stroke-width="3" marker-end="url(#arrow-8065b7)" stroke-linejoin="round"/>
<polyline points="2093,1206 2147,1206" fill="none" stroke="#8065b7" stroke-width="3" marker-end="url(#arrow-8065b7)" stroke-linejoin="round"/>
<text x="2120" y="1184" font-size="19" fill="#0d9766" font-weight="700" text-anchor="middle">最终批准</text>
<polyline points="2122,816 2122,1055 242,1055 242,1099" fill="none" stroke="#168dc5" stroke-width="3" marker-end="url(#arrow-168dc5)" stroke-linejoin="round"/>
<polyline points="2700,816 2700,1024 1505,1024 1505,1099" fill="none" stroke="#0d9766" stroke-width="3" marker-end="url(#arrow-0d9766)" stroke-linejoin="round"/>
<rect x="2450" y="1026" width="152" height="28" rx="0" fill="#ffffff" stroke="#ffffff" stroke-width="1.6"/>
<text x="2520" y="1048" font-size="20" fill="#0d9766" font-weight="400" text-anchor="middle">已确认预算事实</text>
<rect x="820" y="1350" width="1270" height="78" rx="6" fill="#fff8ed" stroke="#e88720" stroke-width="1.6"/>
<text x="838" y="1381" font-size="24" fill="#e88720" font-weight="700" text-anchor="start">退回 / 撤回 / 驳回 / 作废按当前业务状态处理</text>
<text x="838" y="1415" font-size="20" fill="#193e73" font-weight="400" text-anchor="start">可编辑状态补正后建立新轮次；旧轮次、原件和已发生资金事实保留</text>
<polyline points="1945,1308 1945,1345" fill="none" stroke="#e88720" stroke-width="3" marker-end="url(#arrow-e88720)" stroke-linejoin="round"/>
<rect x="1970" y="1312" width="92" height="28" rx="0" fill="#ffffff" stroke="#ffffff" stroke-width="1.6"/>
<text x="2010" y="1334" font-size="20" fill="#e88720" font-weight="400" text-anchor="middle">其他处置</text>
<text x="85" y="1404" font-size="22" fill="#8065b7" font-weight="400" text-anchor="start">审批人也可显式使用下方 Agent 辅助侧路</text>
<rect x="24" y="1476" width="3024" height="537" rx="6" fill="#ffffff" stroke="#0d9766" stroke-width="1.6"/>
<rect x="24" y="1476" width="3024" height="51" rx="6" fill="#0d9766" stroke="#0d9766" stroke-width="1.6"/>
<text x="45" y="1511" font-size="29" fill="#ffffff" font-weight="700" text-anchor="start">04  独立会计执行、财务授权与出纳付款</text>
<text x="3025" y="1510" font-size="22" fill="#ffffff" font-weight="400" text-anchor="end">持久命令与回执负责资金事实；Flowable 只负责审批推进</text>
<rect x="65" y="1558" width="515" height="165" rx="6" fill="#effaf4" stroke="#0d9766" stroke-width="1.6"/>
<text x="83" y="1596" font-size="27" fill="#0d9766" font-weight="700" text-anchor="start">准备期间与科目</text>
<text x="83" y="1640" font-size="23" fill="#193e73" font-weight="400" text-anchor="start">领取固定批准来源</text>
<text x="83" y="1673" font-size="23" fill="#193e73" font-weight="400" text-anchor="start">事务外读 ERP 期间与映射</text>
<polyline points="585,1640 665,1640" fill="none" stroke="#0d9766" stroke-width="3" marker-end="url(#arrow-0d9766)" stroke-linejoin="round"/>
<rect x="671" y="1558" width="515" height="165" rx="6" fill="#effaf4" stroke="#0d9766" stroke-width="1.6"/>
<text x="689" y="1596" font-size="27" fill="#0d9766" font-weight="700" text-anchor="start">复核并登记挂账</text>
<text x="689" y="1640" font-size="23" fill="#193e73" font-weight="400" text-anchor="start">同锁复核已发布科目选择</text>
<text x="689" y="1673" font-size="23" fill="#193e73" font-weight="400" text-anchor="start">保存唯一原凭证命令</text>
<polyline points="1191,1640 1271,1640" fill="none" stroke="#0d9766" stroke-width="3" marker-end="url(#arrow-0d9766)" stroke-linejoin="round"/>
<rect x="1277" y="1558" width="515" height="165" rx="6" fill="#effaf4" stroke="#0d9766" stroke-width="1.6"/>
<text x="1295" y="1596" font-size="27" fill="#0d9766" font-weight="700" text-anchor="start">原凭证过账与查询</text>
<text x="1295" y="1640" font-size="23" fill="#193e73" font-weight="400" text-anchor="start">事务外执行 ERP HTTP</text>
<text x="1295" y="1673" font-size="23" fill="#193e73" font-weight="400" text-anchor="start">真实 POSTED 后才可授权</text>
<polyline points="1797,1640 1877,1640" fill="none" stroke="#0d9766" stroke-width="3" marker-end="url(#arrow-0d9766)" stroke-linejoin="round"/>
<rect x="1883" y="1558" width="515" height="165" rx="6" fill="#effaf4" stroke="#0d9766" stroke-width="1.6"/>
<text x="1901" y="1596" font-size="27" fill="#0d9766" font-weight="700" text-anchor="start">财务显式短期授权</text>
<text x="1901" y="1640" font-size="23" fill="#193e73" font-weight="400" text-anchor="start">绑定批准、凭证与原收款人</text>
<text x="1901" y="1673" font-size="23" fill="#193e73" font-weight="400" text-anchor="start">授权窗口与双版本约束</text>
<polyline points="2403,1640 2483,1640" fill="none" stroke="#0d9766" stroke-width="3" marker-end="url(#arrow-0d9766)" stroke-linejoin="round"/>
<rect x="2489" y="1558" width="515" height="165" rx="6" fill="#effaf4" stroke="#0d9766" stroke-width="1.6"/>
<text x="2507" y="1596" font-size="27" fill="#0d9766" font-weight="700" text-anchor="start">独立出纳选择与复查</text>
<text x="2507" y="1640" font-size="23" fill="#193e73" font-weight="400" text-anchor="start">出纳与财务及收款人分离</text>
<text x="2507" y="1673" font-size="23" fill="#193e73" font-weight="400" text-anchor="start">复核账户后登记原付款</text>
<polyline points="2575,1312 2575,1462 47,1462 47,1640 60,1640" fill="none" stroke="#0d9766" stroke-width="3" marker-end="url(#arrow-0d9766)" stroke-linejoin="round"/>
<rect x="2310" y="1780" width="685" height="190" rx="6" fill="#effaf4" stroke="#0d9766" stroke-width="1.6"/>
<text x="2328" y="1818" font-size="27" fill="#0d9766" font-weight="700" text-anchor="start">事务外资金发送 / 原交易查询</text>
<text x="2328" y="1862" font-size="23" fill="#193e73" font-weight="400" text-anchor="start">领取与 SENDING 保存后发送原命令</text>
<text x="2328" y="1895" font-size="23" fill="#193e73" font-weight="400" text-anchor="start">连接中断或租约异常先查原交易</text>
<text x="2328" y="1928" font-size="23" fill="#193e73" font-weight="400" text-anchor="start">原目标、编号、金额、账户与来源保持</text>
<polygon points="2022.5,1770 2220,1875.0 2022.5,1980 1825,1875.0" fill="#fff9ee" stroke="#168dc5" stroke-width="2"/>
<text x="2022.5" y="1868.0" font-size="24" fill="#168dc5" font-weight="700" text-anchor="middle">权威资金结果</text>
<text x="2022.5" y="1900.0" font-size="24" fill="#168dc5" font-weight="700" text-anchor="middle">明确且无争议?</text>
<rect x="1220" y="1780" width="505" height="190" rx="6" fill="#effaf4" stroke="#0d9766" stroke-width="1.6"/>
<text x="1238" y="1818" font-size="27" fill="#0d9766" font-weight="700" text-anchor="start">记录真实到账与原回执</text>
<text x="1238" y="1862" font-size="23" fill="#193e73" font-weight="400" text-anchor="start">本地保存原成功修订</text>
<text x="1238" y="1895" font-size="23" fill="#193e73" font-weight="400" text-anchor="start">登记结算及付款凭证意图</text>
<text x="1238" y="1928" font-size="23" fill="#193e73" font-weight="400" text-anchor="start">本地失败恢复原查询，不再次首发</text>
<rect x="65" y="1780" width="1045" height="190" rx="6" fill="#fff8ed" stroke="#e88720" stroke-width="1.6"/>
<text x="83" y="1818" font-size="27" fill="#e88720" font-weight="700" text-anchor="start">失败 / 冲突 / 退票 / 未知的独立恢复</text>
<text x="83" y="1862" font-size="23" fill="#193e73" font-weight="400" text-anchor="start">未知先查询；权威查无后才允许明确确认的原号重发</text>
<text x="83" y="1895" font-size="23" fill="#193e73" font-weight="400" text-anchor="start">明确失败、安全结束、冲回、退票与争议分别处理</text>
<text x="83" y="1928" font-size="23" fill="#193e73" font-weight="400" text-anchor="start">不得换新编号绕过原操作；已到账事实不可被抹去</text>
<polyline points="2747,1729 2747,1774" fill="none" stroke="#0d9766" stroke-width="3" marker-end="url(#arrow-0d9766)" stroke-linejoin="round"/>
<polyline points="2305,1875 2227,1875" fill="none" stroke="#0d9766" stroke-width="3" marker-end="url(#arrow-0d9766)" stroke-linejoin="round"/>
<polyline points="1818,1875 1731,1875" fill="none" stroke="#0d9766" stroke-width="3" marker-end="url(#arrow-0d9766)" stroke-linejoin="round"/>
<rect x="1755" y="1832" width="52" height="28" rx="0" fill="#ffffff" stroke="#ffffff" stroke-width="1.6"/>
<text x="1775" y="1854" font-size="20" fill="#0d9766" font-weight="400" text-anchor="middle">成功</text>
<polyline points="2022,1986 2022,1996 589,1996 589,1976" fill="none" stroke="#e88720" stroke-width="3" marker-end="url(#arrow-e88720)" stroke-linejoin="round"/>
<polyline points="588,1775 588,1744 2600,1744 2600,1774" fill="none" stroke="#e88720" stroke-width="3" marker-end="url(#arrow-e88720)" stroke-linejoin="round"/>
<rect x="1350" y="1730" width="352" height="28" rx="0" fill="#ffffff" stroke="#ffffff" stroke-width="1.6"/>
<text x="1520" y="1752" font-size="20" fill="#e88720" font-weight="400" text-anchor="middle">原查询；权威查无后才可明确恢复原号</text>
<rect x="24" y="2035" width="3024" height="557" rx="6" fill="#ffffff" stroke="#2977a7" stroke-width="1.6"/>
<rect x="24" y="2035" width="3024" height="51" rx="6" fill="#2977a7" stroke="#2977a7" stroke-width="1.6"/>
<text x="45" y="2070" font-size="29" fill="#ffffff" font-weight="700" text-anchor="start">05  核销、独立付款凭证与归档</text>
<text x="3025" y="2069" font-size="22" fill="#ffffff" font-weight="400" text-anchor="end">不同账本分别确认；归档核对必要条件，历史依据持续保留</text>
<rect x="65" y="2195" width="480" height="195" rx="6" fill="#effaf4" stroke="#0d9766" stroke-width="1.6"/>
<text x="83" y="2233" font-size="27" fill="#0d9766" font-weight="700" text-anchor="start">真实资金依据</text>
<text x="83" y="2277" font-size="23" fill="#193e73" font-weight="400" text-anchor="start">银行成功回执 / 全额借款冲销</text>
<text x="83" y="2310" font-size="23" fill="#193e73" font-weight="400" text-anchor="start">零额核定有独立来源</text>
<text x="83" y="2343" font-size="23" fill="#193e73" font-weight="400" text-anchor="start">零应付不制造零额银行付款</text>
<rect x="725" y="2135" width="760" height="195" rx="6" fill="#effaf4" stroke="#0d9766" stroke-width="1.6"/>
<text x="743" y="2173" font-size="27" fill="#0d9766" font-weight="700" text-anchor="start">费用核销与预算实际消费</text>
<text x="743" y="2217" font-size="23" fill="#193e73" font-weight="400" text-anchor="start">同事务消费发票、事前额度及借款预留</text>
<text x="743" y="2250" font-size="23" fill="#193e73" font-weight="400" text-anchor="start">登记预算 CONSUME；真实确认后 SETTLED</text>
<text x="743" y="2283" font-size="23" fill="#193e73" font-weight="400" text-anchor="start">重试保持已消费标记，争议不恢复旧资源</text>
<rect x="725" y="2370" width="760" height="195" rx="6" fill="#effaf4" stroke="#0d9766" stroke-width="1.6"/>
<text x="743" y="2408" font-size="27" fill="#0d9766" font-weight="700" text-anchor="start">独立付款凭证准备与 ERP 过账</text>
<text x="743" y="2452" font-size="23" fill="#193e73" font-weight="400" text-anchor="start">仅实际银行付款才登记 PAYMENT 凭证</text>
<text x="743" y="2485" font-size="23" fill="#193e73" font-weight="400" text-anchor="start">沿原成功修订、期间与科目映射准备</text>
<text x="743" y="2518" font-size="23" fill="#193e73" font-weight="400" text-anchor="start">未过账不否认银行已到账</text>
<rect x="1695" y="2252" width="645" height="212" rx="6" fill="#f0f9ff" stroke="#168dc5" stroke-width="1.6"/>
<text x="1713" y="2290" font-size="27" fill="#168dc5" font-weight="700" text-anchor="start">归档条件与原件复核</text>
<text x="1713" y="2334" font-size="23" fill="#193e73" font-weight="400" text-anchor="start">锁内读取申请、轮次与必要财务终态</text>
<text x="1713" y="2367" font-size="23" fill="#193e73" font-weight="400" text-anchor="start">事务外读取全部原件并校验摘要</text>
<text x="1713" y="2400" font-size="23" fill="#193e73" font-weight="400" text-anchor="start">再锁内确认依据未变化，封存不可变清单</text>
<rect x="2490" y="2252" width="505" height="212" rx="6" fill="#f0f9ff" stroke="#168dc5" stroke-width="1.6"/>
<text x="2508" y="2290" font-size="27" fill="#168dc5" font-weight="700" text-anchor="start">归档与运营反馈</text>
<text x="2508" y="2334" font-size="23" fill="#193e73" font-weight="400" text-anchor="start">受字段权限约束的 ZIP 下载</text>
<text x="2508" y="2367" font-size="23" fill="#193e73" font-weight="400" text-anchor="start">消息、审计、统计与指标</text>
<text x="2508" y="2400" font-size="23" fill="#193e73" font-weight="400" text-anchor="start">后续争议保留原清单与历史</text>
<polyline points="1472,1976 1472,2023 305,2023 305,2189" fill="none" stroke="#0d9766" stroke-width="3" marker-end="url(#arrow-0d9766)" stroke-linejoin="round"/>
<polyline points="550,2290 630,2290 630,2232 720,2232" fill="none" stroke="#0d9766" stroke-width="3" marker-end="url(#arrow-0d9766)" stroke-linejoin="round"/>
<polyline points="630,2290 630,2468 720,2468" fill="none" stroke="#0d9766" stroke-width="3" marker-end="url(#arrow-0d9766)" stroke-linejoin="round"/>
<rect x="617" y="2398" width="92" height="28" rx="0" fill="#ffffff" stroke="#ffffff" stroke-width="1.6"/>
<text x="657" y="2420" font-size="20" fill="#0d9766" font-weight="400" text-anchor="middle">实际付款</text>
<polyline points="1491,2232 1590,2232 1590,2295 1689,2295" fill="none" stroke="#0d9766" stroke-width="3" marker-end="url(#arrow-0d9766)" stroke-linejoin="round"/>
<polyline points="1491,2468 1590,2468 1590,2420 1689,2420" fill="none" stroke="#0d9766" stroke-width="3" marker-end="url(#arrow-0d9766)" stroke-linejoin="round"/>
<polyline points="2346,2358 2484,2358" fill="none" stroke="#168dc5" stroke-width="3" marker-end="url(#arrow-168dc5)" stroke-linejoin="round"/>
<text x="2490" y="2530" font-size="25" fill="#e88720" font-weight="700" text-anchor="start">归档 ≠ 将外部未知结果改为成功</text>
<rect x="24" y="2614" width="3024" height="321" rx="6" fill="#ffffff" stroke="#8065b7" stroke-width="1.6"/>
<rect x="24" y="2614" width="3024" height="51" rx="6" fill="#8065b7" stroke="#8065b7" stroke-width="1.6"/>
<text x="45" y="2649" font-size="29" fill="#ffffff" font-weight="700" text-anchor="start">06  可选 Agent 辅助侧路</text>
<text x="3025" y="2648" font-size="22" fill="#ffffff" font-weight="400" text-anchor="end">建议的生成、采纳与最终审批是分别授权的动作</text>
<rect x="65" y="2702" width="460" height="186" rx="6" fill="#f6f2ff" stroke="#8065b7" stroke-width="1.6" stroke-dasharray="9 6"/>
<text x="83" y="2740" font-size="27" fill="#8065b7" font-weight="700" text-anchor="start">选择当前可读输入</text>
<text x="83" y="2784" font-size="23" fill="#193e73" font-weight="400" text-anchor="start">字段与附件来源明确授权</text>
<text x="83" y="2817" font-size="23" fill="#193e73" font-weight="400" text-anchor="start">确认模型目标指纹</text>
<polyline points="530,2795 558,2795" fill="none" stroke="#8065b7" stroke-width="3" marker-end="url(#arrow-8065b7)" stroke-linejoin="round" stroke-dasharray="9 6"/>
<rect x="563" y="2702" width="460" height="186" rx="6" fill="#f6f2ff" stroke="#8065b7" stroke-width="1.6" stroke-dasharray="9 6"/>
<text x="581" y="2740" font-size="27" fill="#8065b7" font-weight="700" text-anchor="start">持久运行排队</text>
<text x="581" y="2784" font-size="23" fill="#193e73" font-weight="400" text-anchor="start">绑定任务、版本及轮次</text>
<text x="581" y="2817" font-size="23" fill="#193e73" font-weight="400" text-anchor="start">保存所选来源与原文依据</text>
<polyline points="1028,2795 1056,2795" fill="none" stroke="#8065b7" stroke-width="3" marker-end="url(#arrow-8065b7)" stroke-linejoin="round" stroke-dasharray="9 6"/>
<rect x="1061" y="2702" width="460" height="186" rx="6" fill="#f6f2ff" stroke="#8065b7" stroke-width="1.6" stroke-dasharray="9 6"/>
<text x="1079" y="2740" font-size="27" fill="#8065b7" font-weight="700" text-anchor="start">领取与事务外模型</text>
<text x="1079" y="2784" font-size="23" fill="#193e73" font-weight="400" text-anchor="start">专用线程 / 持久租约</text>
<text x="1079" y="2817" font-size="23" fill="#193e73" font-weight="400" text-anchor="start">超时不盲目重复远端调用</text>
<polyline points="1526,2795 1554,2795" fill="none" stroke="#8065b7" stroke-width="3" marker-end="url(#arrow-8065b7)" stroke-linejoin="round" stroke-dasharray="9 6"/>
<rect x="1559" y="2702" width="460" height="186" rx="6" fill="#f6f2ff" stroke="#8065b7" stroke-width="1.6" stroke-dasharray="9 6"/>
<text x="1577" y="2740" font-size="27" fill="#8065b7" font-weight="700" text-anchor="start">结果校验与留存</text>
<text x="1577" y="2784" font-size="23" fill="#193e73" font-weight="400" text-anchor="start">严格 JSON 与来源引用</text>
<text x="1577" y="2817" font-size="23" fill="#193e73" font-weight="400" text-anchor="start">复核当前权限、版本及期限</text>
<polyline points="2024,2795 2052,2795" fill="none" stroke="#8065b7" stroke-width="3" marker-end="url(#arrow-8065b7)" stroke-linejoin="round" stroke-dasharray="9 6"/>
<rect x="2057" y="2702" width="460" height="186" rx="6" fill="#f6f2ff" stroke="#8065b7" stroke-width="1.6" stroke-dasharray="9 6"/>
<text x="2075" y="2740" font-size="27" fill="#8065b7" font-weight="700" text-anchor="start">人工修订与处置</text>
<text x="2075" y="2784" font-size="23" fill="#193e73" font-weight="400" text-anchor="start">当前有效审批人采纳或拒绝</text>
<text x="2075" y="2817" font-size="23" fill="#193e73" font-weight="400" text-anchor="start">保存模型原文及复核历史</text>
<polyline points="2522,2795 2550,2795" fill="none" stroke="#8065b7" stroke-width="3" marker-end="url(#arrow-8065b7)" stroke-linejoin="round" stroke-dasharray="9 6"/>
<rect x="2555" y="2702" width="460" height="186" rx="6" fill="#f6f2ff" stroke="#8065b7" stroke-width="1.6" stroke-dasharray="9 6"/>
<text x="2573" y="2740" font-size="27" fill="#8065b7" font-weight="700" text-anchor="start">独立办理审批</text>
<text x="2573" y="2784" font-size="23" fill="#193e73" font-weight="400" text-anchor="start">建议不能代替批准</text>
<text x="2573" y="2817" font-size="23" fill="#193e73" font-weight="400" text-anchor="start">金额和财务事实走专用用例</text>
<rect x="24" y="2957" width="3024" height="84" rx="6" fill="#fff8ed" stroke="#ecc595" stroke-width="1.6"/>
<text x="50" y="2991" font-size="24" fill="#193e73" font-weight="400" text-anchor="start">图例：蓝色为本地用例与审批协作；绿色为权威事实确认；橙色为不通过、未知与人工恢复；紫色虚线为可选 Agent。</text>
<text x="50" y="3027" font-size="24" fill="#193e73" font-weight="400" text-anchor="start">本图是源码中已有专用报销链路的结构说明；企业模型、预算、ERP、银行等实际效果仍以目标环境验收为准。</text>
<text x="44" y="3079" font-size="21" fill="#607a9a" font-weight="400" text-anchor="start">维护依据：source-map.json 与 README 中的 Mermaid；原命令、版本、资金状态和审计规则详见对应领域文档。</text>
</g>
</svg>
